<svg width="1681" height="944" viewBox="0 0 1681 944" fill="none" xmlns="http://www.w3.org/2000/svg">
<circle cx="454" cy="41" r="6" fill="white" fill-opacity="0.1"/>
<circle cx="502" cy="74" r="6" fill="white" fill-opacity="0.1"/>
<circle cx="382" cy="136" r="6" fill="white" fill-opacity="0.1"/>
<circle cx="591" cy="190" r="6" fill="white"/>
<circle cx="1448" cy="573" r="6" fill="white"/>
<circle cx="1454" cy="121" r="6" fill="white"/>
<path d="M450.499 158C450.499 161.314 447.813 164 444.499 164C441.185 164 438.499 161.314 438.499 158C438.499 154.686 312 15.5004 444.499 152C447.813 152 450.499 154.686 450.499 158Z" fill="white"/>
<path d="M1387.49 730.861C1387.49 734.174 1384.8 736.861 1381.49 736.861C1378.17 736.861 1375.49 734.174 1375.49 730.861C1375.49 727.547 1248.99 588.361 1381.49 724.861C1384.8 724.861 1387.49 727.547 1387.49 730.861Z" fill="white"/>
<path d="M1516.19 347.097C1517.8 350.349 1516.46 354.288 1513.21 355.895C1509.96 357.503 1506.02 356.169 1504.41 352.917C1502.81 349.665 1311.16 274.431 1507.39 344.119C1510.64 342.512 1514.58 343.845 1516.19 347.097Z" fill="white"/>
<path d="M118.485 543.861C118.485 547.174 115.799 549.861 112.485 549.861C109.172 549.861 106.485 547.174 106.485 543.861C106.485 540.547 -20.0138 401.361 112.485 537.861C115.799 537.861 118.485 540.547 118.485 543.861Z" fill="white"/>
<circle cx="1090" cy="7" r="6" fill="white" fill-opacity="0.1"/>
<circle cx="927" cy="5" r="6" fill="white" fill-opacity="0.1"/>
<circle cx="805" cy="23" r="6" fill="white" fill-opacity="0.1"/>
<circle cx="1016" cy="96" r="6" fill="white" fill-opacity="0.1"/>
<circle cx="1442" cy="1" r="6" fill="white" fill-opacity="0.1"/>
<circle cx="1256" cy="24" r="6" fill="white"/>
<circle cx="1366" cy="86" r="6" fill="white" fill-opacity="0.1"/>
<circle cx="1405" cy="160" r="6" fill="white" fill-opacity="0.1"/>
<circle cx="1393" cy="268" r="6" fill="white" fill-opacity="0.1"/>
<circle cx="1454" cy="256" r="6" fill="white"/>
<circle cx="1381" cy="350" r="6" fill="white" fill-opacity="0.1"/>
<circle cx="1527" cy="178" r="6" fill="white" fill-opacity="0.1"/>
<circle cx="1223" cy="156" r="6" fill="white" fill-opacity="0.1"/>
<circle cx="1466" cy="385" r="6" fill="white" fill-opacity="0.1"/>
<circle cx="1466" cy="478" r="6" fill="white" fill-opacity="0.1"/>
<circle cx="1399" cy="485" r="6" fill="white" fill-opacity="0.1"/>
<circle cx="1539" cy="450" r="6" fill="white" fill-opacity="0.1"/>
<circle cx="1360" cy="569" r="6" fill="white"/>
<circle cx="1399" cy="628" r="6" fill="white" fill-opacity="0.1"/>
<circle cx="1278" cy="677" r="6" fill="white" fill-opacity="0.1"/>
<circle cx="1151" cy="735" r="6" fill="white"/>
<circle cx="1090" cy="716" r="6" fill="white" fill-opacity="0.1"/>
<circle cx="1102" cy="775" r="6" fill="white" fill-opacity="0.1"/>
<circle cx="947" cy="741" r="6" fill="white" fill-opacity="0.1"/>
<circle cx="981" cy="681" r="6" fill="white" fill-opacity="0.1"/>
<circle cx="840" cy="747" r="6" fill="white"/>
<circle cx="740" cy="802" r="6" fill="white" fill-opacity="0.1"/>
<circle cx="1354" cy="777" r="6" fill="white" fill-opacity="0.1"/>
<circle cx="724" cy="286" r="6" fill="white" fill-opacity="0.1"/>
<circle cx="706" cy="96" r="6" fill="white" fill-opacity="0.1"/>
<circle cx="1548" cy="329" r="6" fill="white" fill-opacity="0.1"/>
<circle cx="1569" cy="27" r="6" fill="white" fill-opacity="0.1"/>
<circle cx="712" cy="170" r="6" fill="white" fill-opacity="0.1"/>
<circle cx="1569" cy="553" r="6" fill="white" fill-opacity="0.1"/>
<circle cx="1554" cy="403" r="6" fill="white" fill-opacity="0.1"/>
<circle cx="1575" cy="101" r="6" fill="white" fill-opacity="0.1"/>
<circle cx="1271" cy="79" r="6" fill="white" fill-opacity="0.1"/>
<circle cx="245" cy="221" r="6" fill="white" fill-opacity="0.1"/>
<circle cx="947" cy="629" r="6" fill="white" fill-opacity="0.1"/>
<circle cx="1043" cy="202" r="6" fill="white" fill-opacity="0.1"/>
<circle cx="157" cy="202" r="6" fill="white" fill-opacity="0.1"/>
<circle cx="859" cy="610" r="6" fill="white" fill-opacity="0.1"/>
<circle cx="955" cy="183" r="6" fill="white" fill-opacity="0.1"/>
<circle cx="225" cy="148" r="6" fill="white" fill-opacity="0.1"/>
<circle cx="927" cy="556" r="6" fill="white" fill-opacity="0.1"/>
<circle cx="1023" cy="129" r="6" fill="white" fill-opacity="0.1"/>
<circle cx="18" cy="221" r="6" fill="white" fill-opacity="0.1"/>
<circle cx="720" cy="629" r="6" fill="white" fill-opacity="0.1"/>
<circle cx="816" cy="202" r="6" fill="white" fill-opacity="0.1"/>
<circle cx="1673" cy="585" r="6" fill="white" fill-opacity="0.1"/>
<circle cx="1658" cy="435" r="6" fill="white" fill-opacity="0.1"/>
<circle cx="1679" cy="133" r="6" fill="white" fill-opacity="0.1"/>
<circle cx="28" cy="274" r="6" fill="white" fill-opacity="0.1"/>
<circle cx="46" cy="392" r="6" fill="white" fill-opacity="0.1"/>
<circle cx="6" cy="420" r="6" fill="white"/>
<circle cx="192" cy="556" r="6" fill="white"/>
<circle cx="61" cy="562" r="6" fill="white" fill-opacity="0.1"/>
<circle cx="231" cy="634" r="6" fill="white" fill-opacity="0.1"/>
<circle cx="319" cy="579" r="6" fill="white" fill-opacity="0.1"/>
<circle cx="394" cy="653" r="6" fill="white" fill-opacity="0.1"/>
<circle cx="475" cy="575" r="6" fill="white" fill-opacity="0.1"/>
<circle cx="538" cy="628" r="6" fill="white" fill-opacity="0.1"/>
<circle cx="629" cy="579" r="6" fill="white" fill-opacity="0.1"/>
<circle cx="617" cy="665" r="6" fill="white"/>
<circle cx="544" cy="709" r="6" fill="white" fill-opacity="0.1"/>
<circle cx="487" cy="747" r="6" fill="white" fill-opacity="0.1"/>
<circle cx="313" cy="737" r="6" fill="white" fill-opacity="0.1"/>
<circle cx="352" cy="789" r="6" fill="white"/>
<circle cx="319" cy="793" r="6" fill="white" fill-opacity="0.1"/>
<circle cx="251" cy="787" r="6" fill="white" fill-opacity="0.1"/>
<circle cx="602" cy="808" r="6" fill="white" fill-opacity="0.1"/>
<circle cx="663" cy="759" r="6" fill="white" fill-opacity="0.1"/>
<circle cx="746" cy="721" r="6" fill="white" fill-opacity="0.1"/>
<circle cx="734" cy="659" r="6" fill="white" fill-opacity="0.1"/>
<circle cx="712" cy="502" r="6" fill="white" fill-opacity="0.1"/>
<circle cx="740" cy="414" r="6" fill="white" fill-opacity="0.1"/>
<circle cx="463" cy="202" r="6" fill="white" fill-opacity="0.1"/>
<circle cx="275" cy="41" r="6" fill="white" fill-opacity="0.1"/>
<circle cx="388" cy="603" r="6" fill="white" fill-opacity="0.1"/>
<g clip-path="url(#clip0_1247_2)">
<path d="M-354 698.644L-12.9271 722.367L329.391 667.467L670.464 767.778L1011.54 653.911L1352.61 740.667L1694.93 656.622L2036 674.244V944.678H1694.93H1352.61H1011.54H670.464H329.391H-12.9271H-354V698.644Z" fill="#3B1E3E"/>
<path d="M-354 705.422L-12.9271 692.544L329.391 746.767L670.464 683.733L1011.54 714.911L1352.61 769.133L1694.93 796.245L2036 676.278V944.678H1694.93H1352.61H1011.54H670.464H329.391H-12.9271H-354V705.422Z" fill="#502356"/>
<path d="M-354 748.8L-12.9271 783.366L329.391 796.244L670.464 773.2L1011.54 754.9L1352.61 778.622L1694.93 816.578L2036 817.933V944.678H1694.93H1352.61H1011.54H670.464H329.391H-12.9271H-354V748.8Z" fill="#66286F"/>
<path d="M-354 746.089L-12.9271 849.111L329.391 821.322L670.464 847.078L1011.54 816.578L1352.61 750.833L1694.93 752.189L2036 843.011V944.678H1694.93H1352.61H1011.54H670.464H329.391H-12.9271H-354V746.089Z" fill="#7D2C89"/>
<path d="M-354 856.566L-12.9271 866.733L329.391 826.744L670.464 864.7L1011.54 838.944L1352.61 874.189L1694.93 831.489L2036 851.822V944.677H1694.93H1352.61H1011.54H670.464H329.391H-12.9271H-354V856.566Z" fill="#942FA4"/>
<path d="M-354 896.556L-12.9271 851.145L329.391 891.811L670.464 885.033L1011.54 868.767L1352.61 884.356L1694.93 878.256L2036 851.145V944.678H1694.93H1352.61H1011.54H670.464H329.391H-12.9271H-354V896.556Z" fill="#AC32C1"/>
<path d="M-354 874.189L-12.9271 876.222L329.391 929.089L670.464 872.833L1011.54 920.956L1352.61 898.589L1694.93 893.845L2036 904.689V944.678H1694.93H1352.61H1011.54H670.464H329.391H-12.9271H-354V874.189Z" fill="#C534DE"/>
</g>
<defs>
<clipPath id="clip0_1247_2">
<rect width="2390" height="732" fill="white" transform="translate(-354 212)"/>
</clipPath>
</defs>
</svg>
