<svg width="299" height="299" viewBox="0 0 299 299" fill="none" xmlns="http://www.w3.org/2000/svg">
<circle cx="264.502" cy="264.502" r="33.5" transform="rotate(-180 264.502 264.502)" stroke="white" stroke-width="2"/>
<rect x="272.002" y="224.002" width="15" height="5" transform="rotate(-180 272.002 224.002)" fill="white"/>
<line x1="266.502" y1="137.996" x2="266.502" y2="219.002" stroke="white"/>
<line y1="-0.5" x2="81.0062" y2="-0.5" transform="matrix(0 -1 -1 0 266.002 93.002)" stroke="white"/>
<line x1="262.502" y1="137.996" x2="262.502" y2="219.002" stroke="white"/>
<line y1="-0.5" x2="81.0062" y2="-0.5" transform="matrix(0 -1 -1 0 262.002 93.002)" stroke="white"/>
<path d="M274.002 122.096C269.764 124.307 266.307 127.764 264.096 132.002C261.885 127.764 258.427 124.307 254.19 122.096C258.427 119.885 261.885 116.427 264.096 112.19C266.307 116.427 269.764 119.885 274.002 122.096Z" fill="white"/>
<path d="M268.002 102.323C266.428 103.144 265.144 104.428 264.323 106.002C263.502 104.428 262.218 103.144 260.644 102.323C262.218 101.502 263.502 100.218 264.323 98.6443C265.144 100.218 266.428 101.502 268.002 102.323Z" fill="white"/>
<path d="M253.002 149.323C251.428 150.144 250.144 151.428 249.323 153.002C248.502 151.428 247.218 150.144 245.644 149.323C247.218 148.502 248.502 147.218 249.323 145.644C250.144 147.218 251.428 148.502 253.002 149.323Z" fill="white"/>
<path d="M240.002 231.872C236.524 233.687 233.686 236.524 231.872 240.002C230.057 236.524 227.22 233.687 223.742 231.872C227.22 230.058 230.057 227.22 231.872 223.742C233.686 227.22 236.524 230.058 240.002 231.872Z" fill="white"/>
<circle cx="264.502" cy="3.50195" r="3.5" transform="rotate(-180 264.502 3.50195)" fill="white"/>
<line x1="249.002" y1="155.998" x2="249.002" y2="224.005" stroke="white"/>
<rect x="252.002" y="209.002" width="6" height="2" transform="rotate(-180 252.002 209.002)" fill="white"/>
<rect x="252.002" y="202.002" width="6" height="2" transform="rotate(-180 252.002 202.002)" fill="white"/>
<rect width="15" height="5" transform="matrix(0 -1 -1 0 223.998 272.002)" fill="white"/>
<line y1="-0.5" x2="81.0062" y2="-0.5" transform="matrix(1 0 0 -1 137.992 266.002)" stroke="white"/>
<line x1="92.9983" y1="266.502" x2="11.9921" y2="266.502" stroke="white"/>
<line y1="-0.5" x2="81.0062" y2="-0.5" transform="matrix(1 0 0 -1 137.992 262.002)" stroke="white"/>
<line x1="92.9983" y1="262.502" x2="11.9921" y2="262.502" stroke="white"/>
<path d="M122.092 274.002C124.303 269.764 127.76 266.307 131.998 264.096C127.76 261.885 124.303 258.427 122.092 254.19C119.881 258.427 116.424 261.885 112.186 264.096C116.424 266.307 119.881 269.764 122.092 274.002Z" fill="white"/>
<path d="M102.32 268.002C103.141 266.428 104.425 265.144 105.999 264.323C104.425 263.502 103.141 262.218 102.32 260.644C101.498 262.218 100.214 263.502 98.6406 264.323C100.214 265.144 101.498 266.428 102.32 268.002Z" fill="white"/>
<path d="M149.32 253.002C150.141 251.428 151.425 250.144 152.999 249.323C151.425 248.502 150.141 247.218 149.32 245.644C148.498 247.218 147.214 248.502 145.641 249.323C147.214 250.144 148.498 251.428 149.32 253.002Z" fill="white"/>
<circle cx="3.5" cy="3.5" r="3.5" transform="matrix(0 -1 -1 0 6.99829 268.002)" fill="white"/>
<line y1="-0.5" x2="68.0074" y2="-0.5" transform="matrix(1 0 0 -1 155.994 248.502)" stroke="white"/>
<rect width="6" height="2" transform="matrix(0 -1 -1 0 208.998 252.002)" fill="white"/>
<rect width="6" height="2" transform="matrix(0 -1 -1 0 201.998 252.002)" fill="white"/>
</svg>
