<svg width="299" height="299" viewBox="0 0 299 299" fill="none" xmlns="http://www.w3.org/2000/svg">
<circle cx="264.5" cy="34.5" r="33.5" transform="rotate(90 264.5 34.5)" stroke="white" stroke-width="2"/>
<rect x="224" y="27" width="15" height="5" transform="rotate(90 224 27)" fill="white"/>
<line x1="137.994" y1="32.5" x2="219" y2="32.5" stroke="white"/>
<line y1="-0.5" x2="81.0062" y2="-0.5" transform="matrix(-1 0 0 1 93 33)" stroke="white"/>
<line x1="137.994" y1="36.5" x2="219" y2="36.5" stroke="white"/>
<line y1="-0.5" x2="81.0062" y2="-0.5" transform="matrix(-1 0 0 1 93 37)" stroke="white"/>
<path d="M122.094 25C124.305 29.2376 127.762 32.695 132 34.906C127.762 37.117 124.305 40.5745 122.094 44.812C119.883 40.5745 116.425 37.117 112.188 34.906C116.425 32.695 119.883 29.2376 122.094 25Z" fill="white"/>
<path d="M102.321 31C103.142 32.5738 104.426 33.8578 106 34.679C104.426 35.5001 103.142 36.7841 102.321 38.3579C101.5 36.7841 100.216 35.5001 98.6423 34.679C100.216 33.8578 101.5 32.5738 102.321 31Z" fill="white"/>
<path d="M149.321 46C150.142 47.5738 151.426 48.8578 153 49.679C151.426 50.5001 150.142 51.7841 149.321 53.3579C148.5 51.7841 147.216 50.5001 145.642 49.679C147.216 48.8578 148.5 47.5738 149.321 46Z" fill="white"/>
<path d="M231.87 59C233.685 62.4777 236.522 65.3152 240 67.1298C236.522 68.9443 233.685 71.7818 231.87 75.2595C230.056 71.7818 227.218 68.9443 223.74 67.1298C227.218 65.3152 230.056 62.4777 231.87 59Z" fill="white"/>
<circle cx="3.5" cy="34.5" r="3.5" transform="rotate(90 3.5 34.5)" fill="white"/>
<line x1="155.996" y1="50" x2="224.003" y2="50" stroke="white"/>
<rect x="209" y="47" width="6" height="2" transform="rotate(90 209 47)" fill="white"/>
<rect x="202" y="47" width="6" height="2" transform="rotate(90 202 47)" fill="white"/>
<rect width="15" height="5" transform="matrix(-1 0 0 1 272 75.0034)" fill="white"/>
<line y1="-0.5" x2="81.0062" y2="-0.5" transform="matrix(0 -1 -1 0 266 161.01)" stroke="white"/>
<line x1="266.5" y1="206.003" x2="266.5" y2="287.01" stroke="white"/>
<line y1="-0.5" x2="81.0062" y2="-0.5" transform="matrix(0 -1 -1 0 262 161.01)" stroke="white"/>
<line x1="262.5" y1="206.003" x2="262.5" y2="287.01" stroke="white"/>
<path d="M274 176.91C269.762 174.699 266.305 171.241 264.094 167.004C261.883 171.241 258.426 174.699 254.188 176.91C258.426 179.121 261.883 182.578 264.094 186.816C266.305 182.578 269.762 179.121 274 176.91Z" fill="white"/>
<path d="M268 196.682C266.426 195.861 265.142 194.577 264.321 193.003C263.5 194.577 262.216 195.861 260.642 196.682C262.216 197.503 263.5 198.787 264.321 200.361C265.142 198.787 266.426 197.503 268 196.682Z" fill="white"/>
<path d="M253 149.682C251.426 148.861 250.142 147.577 249.321 146.003C248.5 147.577 247.216 148.861 245.642 149.682C247.216 150.503 248.5 151.787 249.321 153.361C250.142 151.787 251.426 150.503 253 149.682Z" fill="white"/>
<circle cx="3.5" cy="3.5" r="3.5" transform="matrix(-1 0 0 1 268 292.003)" fill="white"/>
<line y1="-0.5" x2="68.0074" y2="-0.5" transform="matrix(0 -1 -1 0 248.5 143.007)" stroke="white"/>
<rect width="6" height="2" transform="matrix(-1 0 0 1 252 90.0034)" fill="white"/>
<rect width="6" height="2" transform="matrix(-1 0 0 1 252 97.0034)" fill="white"/>
</svg>
