<svg width="299" height="299" viewBox="0 0 299 299" fill="none" xmlns="http://www.w3.org/2000/svg">
<circle cx="34.5" cy="34.5" r="33.5" stroke="white" stroke-width="2"/>
<rect x="27" y="75" width="15" height="5" fill="white"/>
<line x1="32.5" y1="161.006" x2="32.5" y2="80.0002" stroke="white"/>
<line y1="-0.5" x2="81.0062" y2="-0.5" transform="matrix(0 1 1 0 33 206)" stroke="white"/>
<line x1="36.5" y1="161.006" x2="36.5" y2="80.0002" stroke="white"/>
<line y1="-0.5" x2="81.0062" y2="-0.5" transform="matrix(0 1 1 0 37 206)" stroke="white"/>
<path d="M25 176.906C29.2376 174.695 32.695 171.238 34.906 167C37.117 171.238 40.5745 174.695 44.812 176.906C40.5745 179.117 37.117 182.575 34.906 186.812C32.695 182.575 29.2376 179.117 25 176.906Z" fill="white"/>
<path d="M31 196.679C32.5738 195.858 33.8578 194.574 34.679 193C35.5001 194.574 36.7841 195.858 38.3579 196.679C36.7841 197.5 35.5001 198.784 34.679 200.358C33.8578 198.784 32.5738 197.5 31 196.679Z" fill="white"/>
<path d="M46 149.679C47.5738 148.858 48.8578 147.574 49.679 146C50.5001 147.574 51.7841 148.858 53.3579 149.679C51.7841 150.5 50.5001 151.784 49.679 153.358C48.8578 151.784 47.5738 150.5 46 149.679Z" fill="white"/>
<path d="M59 67.1299C62.4777 65.3154 65.3152 62.4778 67.1298 59.0001C68.9443 62.4778 71.7818 65.3154 75.2595 67.1299C71.7818 68.9444 68.9443 71.7819 67.1298 75.2596C65.3152 71.7819 62.4777 68.9444 59 67.1299Z" fill="white"/>
<circle cx="34.5" cy="295.5" r="3.5" fill="white"/>
<line x1="50" y1="143.004" x2="50" y2="74.9966" stroke="white"/>
<rect x="47" y="90" width="6" height="2" fill="white"/>
<rect x="47" y="97" width="6" height="2" fill="white"/>
<rect width="15" height="5" transform="matrix(0 1 1 0 75.0034 27)" fill="white"/>
<line y1="-0.5" x2="81.0062" y2="-0.5" transform="matrix(-1 0 0 1 161.01 33)" stroke="white"/>
<line x1="206.003" y1="32.5" x2="287.01" y2="32.5" stroke="white"/>
<line y1="-0.5" x2="81.0062" y2="-0.5" transform="matrix(-1 0 0 1 161.01 37)" stroke="white"/>
<line x1="206.003" y1="36.5" x2="287.01" y2="36.5" stroke="white"/>
<path d="M176.91 25C174.699 29.2376 171.241 32.695 167.004 34.906C171.241 37.117 174.699 40.5745 176.91 44.812C179.121 40.5745 182.578 37.117 186.816 34.906C182.578 32.695 179.121 29.2376 176.91 25Z" fill="white"/>
<path d="M196.682 31C195.861 32.5738 194.577 33.8578 193.003 34.679C194.577 35.5001 195.861 36.7841 196.682 38.3579C197.503 36.7841 198.787 35.5001 200.361 34.679C198.787 33.8578 197.503 32.5738 196.682 31Z" fill="white"/>
<path d="M149.682 46C148.861 47.5738 147.577 48.8578 146.003 49.679C147.577 50.5001 148.861 51.7841 149.682 53.3579C150.503 51.7841 151.787 50.5001 153.361 49.679C151.787 48.8578 150.503 47.5738 149.682 46Z" fill="white"/>
<circle cx="3.5" cy="3.5" r="3.5" transform="matrix(0 1 1 0 292.003 31)" fill="white"/>
<line y1="-0.5" x2="68.0074" y2="-0.5" transform="matrix(-1 0 0 1 143.007 50.5)" stroke="white"/>
<rect width="6" height="2" transform="matrix(0 1 1 0 90.0034 47)" fill="white"/>
<rect width="6" height="2" transform="matrix(0 1 1 0 97.0034 47)" fill="white"/>
</svg>
