<svg width="299" height="299" viewBox="0 0 299 299" fill="none" xmlns="http://www.w3.org/2000/svg">
<circle cx="34.5017" cy="264.502" r="33.5" transform="rotate(-90 34.5017 264.502)" stroke="white" stroke-width="2"/>
<rect x="75.0017" y="272.002" width="15" height="5" transform="rotate(-90 75.0017 272.002)" fill="white"/>
<line x1="161.008" y1="266.502" x2="80.0019" y2="266.502" stroke="white"/>
<line y1="-0.5" x2="81.0062" y2="-0.5" transform="matrix(1 0 0 -1 206.002 266.002)" stroke="white"/>
<line x1="161.008" y1="262.502" x2="80.0019" y2="262.502" stroke="white"/>
<line y1="-0.5" x2="81.0062" y2="-0.5" transform="matrix(1 0 0 -1 206.002 262.002)" stroke="white"/>
<path d="M176.908 274.002C174.697 269.764 171.24 266.307 167.002 264.096C171.24 261.885 174.697 258.427 176.908 254.19C179.119 258.427 182.576 261.885 186.814 264.096C182.576 266.307 179.119 269.764 176.908 274.002Z" fill="white"/>
<path d="M196.68 268.002C195.859 266.428 194.575 265.144 193.001 264.323C194.575 263.502 195.859 262.218 196.68 260.644C197.502 262.218 198.786 263.502 200.359 264.323C198.786 265.144 197.502 266.428 196.68 268.002Z" fill="white"/>
<path d="M149.68 253.002C148.859 251.428 147.575 250.144 146.001 249.323C147.575 248.502 148.859 247.218 149.68 245.644C150.502 247.218 151.786 248.502 153.359 249.323C151.786 250.144 150.502 251.428 149.68 253.002Z" fill="white"/>
<path d="M67.1316 240.002C65.3171 236.524 62.4795 233.687 59.0018 231.872C62.4795 230.058 65.3171 227.22 67.1316 223.742C68.9461 227.22 71.7836 230.058 75.2614 231.872C71.7836 233.687 68.9461 236.524 67.1316 240.002Z" fill="white"/>
<circle cx="295.502" cy="264.502" r="3.5" transform="rotate(-90 295.502 264.502)" fill="white"/>
<line x1="143.006" y1="249.002" x2="74.9983" y2="249.002" stroke="white"/>
<rect x="90.0017" y="252.002" width="6" height="2" transform="rotate(-90 90.0017 252.002)" fill="white"/>
<rect x="97.0017" y="252.002" width="6" height="2" transform="rotate(-90 97.0017 252.002)" fill="white"/>
<rect width="15" height="5" transform="matrix(1 0 0 -1 27.0017 223.999)" fill="white"/>
<line y1="-0.5" x2="81.0062" y2="-0.5" transform="matrix(0 1 1 0 33.0017 137.992)" stroke="white"/>
<line x1="32.5017" y1="92.9985" x2="32.5017" y2="11.9924" stroke="white"/>
<line y1="-0.5" x2="81.0062" y2="-0.5" transform="matrix(0 1 1 0 37.0017 137.992)" stroke="white"/>
<line x1="36.5017" y1="92.9985" x2="36.5017" y2="11.9924" stroke="white"/>
<path d="M25.0017 122.092C29.2393 124.303 32.6967 127.761 34.9077 131.998C37.1187 127.761 40.5762 124.303 44.8137 122.092C40.5762 119.881 37.1187 116.424 34.9077 112.186C32.6967 116.424 29.2393 119.881 25.0017 122.092Z" fill="white"/>
<path d="M31.0017 102.32C32.5755 103.141 33.8595 104.425 34.6807 105.999C35.5018 104.425 36.7859 103.141 38.3596 102.32C36.7859 101.499 35.5018 100.215 34.6807 98.6409C33.8595 100.215 32.5755 101.499 31.0017 102.32Z" fill="white"/>
<path d="M46.0017 149.32C47.5755 150.141 48.8595 151.425 49.6807 152.999C50.5018 151.425 51.7859 150.141 53.3596 149.32C51.7859 148.499 50.5018 147.215 49.6807 145.641C48.8595 147.215 47.5755 148.499 46.0017 149.32Z" fill="white"/>
<circle cx="3.5" cy="3.5" r="3.5" transform="matrix(1 0 0 -1 31.0017 6.99854)" fill="white"/>
<line y1="-0.5" x2="68.0074" y2="-0.5" transform="matrix(0 1 1 0 50.5017 155.995)" stroke="white"/>
<rect width="6" height="2" transform="matrix(1 0 0 -1 47.0017 208.999)" fill="white"/>
<rect width="6" height="2" transform="matrix(1 0 0 -1 47.0017 201.999)" fill="white"/>
</svg>
